<svg width="31" height="34" viewBox="0 0 31 34" fill="none" xmlns="http://www.w3.org/2000/svg">
<path d="M10.2354 14.187C10.0975 14.187 9.9638 14.1289 9.86932 14.0232L8.46531 12.447L5.14569 13.3366C4.97701 13.3821 4.79644 13.3338 4.67256 13.2099L0.143502 8.68089C0.0196197 8.557 -0.0286735 8.37643 0.01682 8.20775L0.923191 4.82653C0.968684 4.65716 1.10027 4.52558 1.26964 4.48008C1.43832 4.43459 1.61889 4.48288 1.74277 4.60677L5.37246 8.23645L7.63243 7.63104L8.23785 5.37176L4.60816 1.74207C4.48428 1.61819 4.43599 1.43762 4.48148 1.26894C4.52698 1.09957 4.65856 0.967985 4.82793 0.922491L8.20915 0.0168201C8.37783 -0.0286735 8.5584 0.0196196 8.68228 0.143502L9.62855 1.08977C9.81962 1.28084 9.81962 1.5916 9.62855 1.78267C9.43748 1.97374 9.12672 1.97374 8.93565 1.78267L8.18955 1.03657L5.90158 1.64969L9.13092 4.87903C9.2548 5.00291 9.3031 5.18348 9.2576 5.35216L8.50591 8.15736C8.46042 8.32674 8.32883 8.45832 8.15946 8.50381L5.35356 9.2555C5.18488 9.301 5.00431 9.2527 4.88043 9.12882L1.64969 5.89948L1.03657 8.18746L5.16599 12.3169L8.50381 11.4224C8.68228 11.3748 8.87336 11.4315 8.99654 11.5701L10.411 13.1574C10.5482 13.1357 10.6882 13.1246 10.8282 13.1246H12.0936V10.7827C12.0936 10.4082 12.2217 10.0555 12.4463 9.77553L11.5708 8.99514C11.4329 8.87196 11.3755 8.68159 11.4238 8.50241L12.3183 5.16529L11.5596 4.40659C11.3685 4.21552 11.3685 3.90477 11.5596 3.71369C11.7506 3.52262 12.0614 3.52262 12.2525 3.71369L13.2113 4.67256C13.3352 4.79644 13.3835 4.97701 13.338 5.14569L12.4484 8.46462L13.52 9.41928C13.6404 9.52706 13.7006 9.68734 13.6803 9.84762C13.66 10.0079 13.5613 10.1479 13.4171 10.2214C13.205 10.3291 13.0735 10.544 13.0735 10.782V13.6138C13.0735 13.8846 12.8544 14.1037 12.5835 14.1037H10.8282C10.6728 14.1037 10.5188 14.1254 10.3704 14.1674C10.3257 14.1807 10.2802 14.187 10.2354 14.187Z" fill="#5D8AD3"/>
<path d="M12.5837 19.6118C12.3254 19.6118 12.1098 19.4102 12.0952 19.1506C12.0938 19.1282 12.0938 19.1065 12.0938 19.0841V17.8005C12.0938 17.5296 12.3128 17.3105 12.5837 17.3105C12.8545 17.3105 13.0743 17.5296 13.0743 17.8005V19.1219C13.0743 19.3872 12.8636 19.6041 12.5984 19.6118C12.5935 19.6118 12.5886 19.6118 12.5837 19.6118Z" fill="#E8C547"/>
<path d="M23.9821 20.0088C23.9765 20.0088 23.9702 20.0088 23.9646 20.0088C23.7008 19.9997 23.4922 19.7828 23.4922 19.5189V13.7762C23.4922 13.7524 23.4929 13.7286 23.495 13.7048C23.5209 13.4452 23.7435 13.2527 24.0066 13.2639C24.2677 13.2765 24.472 13.4921 24.472 13.7531V19.486C24.472 19.5077 24.4713 19.5315 24.4699 19.5532C24.4525 19.8108 24.2376 20.0088 23.9821 20.0088Z" fill="#E8C547"/>
<path d="M23.9821 20.0088C23.9765 20.0088 23.9702 20.0088 23.9646 20.0088C23.7008 19.9997 23.4922 19.7828 23.4922 19.5189V13.7762C23.4922 13.7524 23.4929 13.7286 23.495 13.7048C23.5209 13.4452 23.7435 13.2527 24.0066 13.2639C24.2677 13.2765 24.472 13.4921 24.472 13.7531V19.486C24.472 19.5077 24.4713 19.5315 24.4699 19.5532C24.4525 19.8108 24.2376 20.0088 23.9821 20.0088Z" fill="#E8C547"/>
<path d="M12.5837 21.186C12.3128 21.186 12.0938 20.9669 12.0938 20.6961V19.122C12.0938 18.8511 12.3128 18.6321 12.5837 18.6321C12.8545 18.6321 13.0736 18.8511 13.0736 19.122V20.6961C13.0736 20.9669 12.8545 21.186 12.5837 21.186Z" fill="#E8C547"/>
<path d="M16.109 26.7279C15.8382 26.7279 15.6191 26.5088 15.6191 26.2379V26.1141C15.6191 25.4016 15.4308 24.6982 15.0753 24.0815C14.9402 23.8471 15.0207 23.5475 15.2552 23.4124C15.4896 23.2774 15.7892 23.3578 15.9243 23.5923C16.3652 24.358 16.5983 25.2301 16.5983 26.1141V26.2379C16.599 26.5081 16.3799 26.7279 16.109 26.7279Z" fill="#E8C547"/>
<path d="M27.2646 33.6785H11.3972C11.1263 33.6785 10.9072 33.4594 10.9072 33.1885V29.8759C10.9072 29.6051 11.1263 29.386 11.3972 29.386H24.7946C24.8933 29.386 24.9892 29.4154 25.0711 29.4714C25.694 29.8969 26.4541 30.0845 27.21 29.9998C27.3486 29.9844 27.4872 30.0285 27.5907 30.1216C27.695 30.2147 27.7538 30.3476 27.7538 30.4869V33.1892C27.7545 33.4587 27.5355 33.6785 27.2646 33.6785ZM11.8871 32.6986H26.7747V30.9986C26.0223 30.9839 25.2867 30.7669 24.6491 30.3658H11.8871V32.6986Z" fill="#E8C547"/>
<path d="M15.501 24.3265C15.3309 24.3265 15.1665 24.2383 15.0755 24.0801C14.8977 23.7701 14.6786 23.4838 14.4246 23.2291L13.8787 22.6831C13.6876 22.4921 13.6876 22.1813 13.8787 21.9902C14.0697 21.7992 14.3805 21.7992 14.5716 21.9902L15.1182 22.5369C15.4331 22.8525 15.7047 23.2074 15.9259 23.5923C16.0602 23.8268 15.9798 24.1263 15.7453 24.2614C15.6676 24.3055 15.5836 24.3265 15.501 24.3265Z" fill="#E8C547"/>
<path d="M27.1423 22.7033C26.8714 22.7033 26.6523 22.4842 26.6523 22.2134V21.4526C26.6523 21.1817 26.8714 20.9626 27.1423 20.9626C27.4131 20.9626 27.6322 21.1817 27.6322 21.4526V22.2134C27.6322 22.4842 27.4131 22.7033 27.1423 22.7033Z" fill="#E8C547"/>
<path d="M24.7948 30.366H13.2065C12.9357 30.366 12.7166 30.1469 12.7166 29.876C12.7166 29.6052 12.9357 29.3861 13.2065 29.3861H23.5574L15.4735 20.3119H13.322C12.6669 20.3119 12.1273 19.8003 12.0944 19.1466C12.093 19.1277 12.093 19.1067 12.093 19.0836V17.8C12.093 17.5291 12.3121 17.31 12.5829 17.31H16.9181C17.0385 17.31 17.1498 17.2603 17.2324 17.17C17.2387 17.1631 17.245 17.1554 17.2562 17.1407C17.2702 17.1225 17.2807 17.1057 17.2912 17.0868C17.2995 17.0707 17.3093 17.0497 17.3156 17.0322C17.3324 16.9853 17.3415 16.9363 17.3415 16.8866V14.5265C17.3415 14.4768 17.3331 14.4278 17.3156 14.3802C17.3093 14.3634 17.2995 14.3425 17.2884 14.3208C17.2814 14.3075 17.2709 14.2907 17.2597 14.2774C17.2457 14.2585 17.2387 14.2508 17.2352 14.2466C17.1498 14.1535 17.0385 14.1038 16.9181 14.1038H10.8283C10.6729 14.1038 10.5189 14.1255 10.3705 14.1675C9.65314 14.3704 9.15271 15.0326 9.15271 15.7786V17.4423C9.13242 19.19 9.11212 21.9917 9.13801 22.5642C9.29899 22.8161 9.86101 23.6987 11.8809 26.8756C12.0258 27.1037 11.9586 27.4068 11.7304 27.5517C11.5023 27.6965 11.1992 27.6294 11.0543 27.4012C8.79646 23.8499 8.28554 23.0478 8.25404 23.0002C8.14556 22.8378 8.13436 22.8203 8.15046 20.0487C8.15815 18.7518 8.17285 17.4486 8.17355 17.4353V15.7772C8.17355 14.5944 8.96724 13.5446 10.1032 13.2233C10.3369 13.1561 10.5819 13.1218 10.829 13.1218H16.9188C17.3121 13.1218 17.6901 13.2891 17.9568 13.5803C17.9841 13.6097 18.0134 13.6447 18.0435 13.6859C18.0806 13.7342 18.1177 13.7923 18.1513 13.8539C18.187 13.9218 18.215 13.9827 18.2367 14.0429C18.2934 14.1983 18.3221 14.3599 18.3221 14.5244V16.8845C18.3221 17.049 18.2934 17.2106 18.2374 17.366C18.2157 17.4262 18.1877 17.4871 18.1555 17.5494C18.1184 17.6173 18.0806 17.6754 18.0407 17.7279C18.0134 17.7643 17.9841 17.8 17.9547 17.8322C17.6915 18.1205 17.3128 18.2878 16.9195 18.2878H13.0743V19.0934C13.0813 19.2264 13.1904 19.3292 13.3234 19.3292H15.6457C15.6534 19.3292 15.6611 19.3285 15.6688 19.3285C15.8158 19.3208 15.9599 19.381 16.0586 19.4916L24.491 28.9557C24.6646 29.1502 24.8599 29.3224 25.0726 29.468C25.2504 29.5891 25.3281 29.8116 25.2644 30.0174C25.2 30.226 25.0096 30.366 24.7948 30.366Z" fill="#E8C547"/>
<path d="M10.6098 3.25401C10.4607 3.25401 10.3137 3.18612 10.2171 3.05804C10.0547 2.84177 10.0988 2.53452 10.3151 2.37214C10.5314 2.20976 10.8386 2.25386 11.001 2.47013C11.1634 2.68639 11.12 2.99365 10.903 3.15603C10.8155 3.22252 10.7119 3.25401 10.6098 3.25401Z" fill="#5D8AD3"/>
<path d="M23.9821 20.0089C23.9765 20.0089 23.9702 20.0089 23.9646 20.0089C23.7008 19.9998 23.4922 19.7828 23.4922 19.5189V19.3965C23.4922 19.1984 23.6119 19.0199 23.7945 18.9436C23.9779 18.868 24.1886 18.91 24.3286 19.05C24.4203 19.1417 24.4727 19.267 24.4727 19.3972V19.486C24.4727 19.5077 24.472 19.5315 24.4706 19.5532C24.4525 19.8108 24.2376 20.0089 23.9821 20.0089Z" fill="#E8C547"/>
<path d="M26.8542 30.9993C26.0227 30.9993 25.2073 30.7508 24.5186 30.2805C24.2401 30.0901 23.9839 29.8647 23.7578 29.6107L15.3254 20.1466C15.2009 20.0066 15.1666 19.8079 15.238 19.6343C15.3093 19.4607 15.4731 19.3431 15.66 19.3319C15.7909 19.3235 15.8931 19.215 15.8931 19.0842C15.8931 18.8133 16.1121 18.5942 16.383 18.5942C16.6539 18.5942 16.8729 18.8133 16.8729 19.0842V19.3193C16.8729 19.6189 17.1165 19.8632 17.416 19.8632H19.149C19.4486 19.8632 19.6921 19.6196 19.6921 19.3193C19.6921 19.0485 19.9112 18.8294 20.1821 18.8294C20.4529 18.8294 20.672 19.0485 20.672 19.3193V19.4866C20.672 19.8625 20.819 20.2166 21.0849 20.4826C21.3509 20.7492 21.705 20.8955 22.0823 20.8955C22.8473 20.8955 23.4793 20.274 23.4919 19.5111C23.4961 19.2437 23.7144 19.0289 23.9818 19.0289C23.9832 19.0289 23.9846 19.0289 23.986 19.0289C24.2548 19.031 24.4717 19.25 24.4717 19.5188V20.0325C24.4717 20.4091 24.618 20.7625 24.8847 21.0285C25.1513 21.2952 25.5048 21.4421 25.8813 21.4421C26.0801 21.4421 26.2712 21.4022 26.449 21.3238C26.6246 21.2462 26.8297 21.2784 26.9725 21.4064L29.6118 23.7574C30.4944 24.5434 30.9997 25.6723 30.9997 26.8545C30.9997 27.9617 30.5686 29.0025 29.7854 29.7856C29.1135 30.4575 28.2603 30.8684 27.3189 30.9741C27.1643 30.9902 27.0089 30.9993 26.8542 30.9993ZM17.2502 20.8339L24.4892 28.9591C24.6628 29.1536 24.8581 29.3258 25.0709 29.4714C25.6938 29.8969 26.4539 30.0845 27.2097 29.9998C27.9278 29.9193 28.5788 29.6058 29.0918 29.092C29.6895 28.4943 30.0191 27.6992 30.0191 26.8538C30.0191 25.9509 29.6328 25.0886 28.9588 24.4888L26.5364 22.331C26.3244 22.3912 26.1046 22.422 25.8799 22.422C25.2409 22.422 24.6411 22.1735 24.1904 21.7214C24.0238 21.5548 23.8845 21.3679 23.7753 21.1664C23.3407 21.6038 22.7402 21.8761 22.0809 21.8761C21.4419 21.8761 20.8414 21.6276 20.3906 21.1755C20.2191 21.004 20.0771 20.8115 19.9672 20.6037C19.7306 20.7555 19.4493 20.843 19.1483 20.843H17.4153C17.3601 20.843 17.3048 20.8395 17.2502 20.8339Z" fill="#5D8AD3"/>
<path d="M26.9495 28.7939C25.9038 28.7939 25.0527 27.9429 25.0527 26.8972C25.0527 25.8516 25.9038 25.0005 26.9495 25.0005C27.9951 25.0005 28.8462 25.8516 28.8462 26.8972C28.8462 27.9429 27.9951 28.7939 26.9495 28.7939ZM26.9495 25.9803C26.4441 25.9803 26.0326 26.3919 26.0326 26.8972C26.0326 27.4025 26.4441 27.8141 26.9495 27.8141C27.4548 27.8141 27.8663 27.4025 27.8663 26.8972C27.8663 26.3919 27.4548 25.9803 26.9495 25.9803Z" fill="#5D8AD3"/>
<path d="M16.3832 14.1044H12.5827C12.3118 14.1044 12.0928 13.8853 12.0928 13.6145V10.7827C12.0928 10.1744 12.4294 9.62572 12.9704 9.34926C13.1944 9.23448 13.4485 9.17358 13.7025 9.17358H15.2626C16.1508 9.17358 16.8731 9.89518 16.8731 10.7827V13.6145C16.8731 13.8846 16.654 14.1044 16.3832 14.1044ZM13.0726 13.1245H15.8932V10.7827C15.8932 10.4355 15.6105 10.1534 15.2626 10.1534H13.7025C13.6011 10.1534 13.5052 10.1765 13.4163 10.222C13.2035 10.3305 13.0719 10.5454 13.0719 10.7834V13.1245H13.0726Z" fill="#E8C547"/>
<path d="M19.1495 20.843H17.4165C16.5767 20.843 15.8936 20.1592 15.8936 19.3193V17.8006C15.8936 17.5297 16.1126 17.3106 16.3835 17.3106H16.9182C17.0386 17.3106 17.1499 17.2609 17.2325 17.1706C17.2388 17.1636 17.2451 17.156 17.2563 17.1413C17.2703 17.1231 17.2808 17.1063 17.2913 17.0874C17.2997 17.0713 17.3095 17.0503 17.3158 17.0328C17.3325 16.9859 17.3416 16.9369 17.3416 16.8872V14.5271C17.3416 14.4774 17.3332 14.4284 17.3158 14.3808C17.3095 14.364 17.2997 14.3431 17.2885 14.3214C17.2815 14.3081 17.271 14.2913 17.2605 14.278C17.2465 14.2591 17.2395 14.2514 17.236 14.2472C17.1506 14.1541 17.0393 14.1044 16.9189 14.1044H16.3842C16.1133 14.1044 15.8943 13.8853 15.8943 13.6145V11.7646C15.8943 10.8778 16.6159 10.1562 17.5026 10.1562H19.0641C19.9509 10.1562 20.6725 10.8778 20.6725 11.7646V19.3193C20.6725 20.1592 19.9894 20.843 19.1495 20.843ZM16.8734 18.2905V19.3193C16.8734 19.6189 17.117 19.8632 17.4165 19.8632H19.1495C19.449 19.8632 19.6926 19.6196 19.6926 19.3193V11.7639C19.6926 11.4175 19.4106 11.1354 19.0641 11.1354H17.5019C17.1555 11.1354 16.8734 11.4175 16.8734 11.7639V13.1238H16.9182C17.3116 13.1238 17.6895 13.2911 17.9562 13.5823C17.9835 13.6117 18.0122 13.6467 18.0429 13.6879C18.08 13.7362 18.1171 13.7943 18.1507 13.8559C18.1864 13.9238 18.2144 13.9847 18.2361 14.0449C18.2928 14.2003 18.3215 14.362 18.3215 14.5264V16.8865C18.3215 17.051 18.2928 17.2126 18.2368 17.368C18.2151 17.4282 18.1871 17.4891 18.1549 17.5514C18.1178 17.6193 18.08 17.6774 18.0401 17.7299C18.0129 17.7663 17.9835 17.802 17.9541 17.8342C17.6909 18.1225 17.3123 18.2898 16.9189 18.2898H16.8734V18.2905Z" fill="#E8C547"/>
<path d="M22.0816 21.8754C21.4426 21.8754 20.842 21.6269 20.3913 21.1748C19.9399 20.7234 19.6914 20.1235 19.6914 19.4859V12.8005C19.6914 11.9396 20.392 11.239 21.2529 11.239H22.9102C23.7711 11.239 24.4717 11.9396 24.4717 12.8005V13.7531C24.4717 13.7622 24.4717 13.7713 24.471 13.7804V19.5188C24.471 19.5216 24.471 19.5244 24.471 19.5265C24.45 20.822 23.3785 21.8754 22.0816 21.8754ZM21.2536 12.2196C20.933 12.2196 20.672 12.4806 20.672 12.8012V19.4866C20.672 19.8625 20.8189 20.2166 21.0849 20.4826C21.3509 20.7493 21.705 20.8955 22.0823 20.8955C22.8459 20.8955 23.4772 20.2761 23.4919 19.5146V13.7762C23.4919 13.7636 23.4919 13.7517 23.4926 13.7391V12.8012C23.4926 12.4806 23.2315 12.2196 22.9109 12.2196H21.2536Z" fill="#E8C547"/>
<path d="M25.8807 22.422C25.2417 22.422 24.6418 22.1735 24.1911 21.7214C23.7404 21.2713 23.4912 20.6715 23.4912 20.0325V19.5188C23.4912 19.5097 23.4912 19.5006 23.4919 19.4922V13.753C23.4919 13.7495 23.4919 13.7453 23.4919 13.7418C23.5094 12.9901 24.1358 12.3784 24.8882 12.3784H26.8731C27.643 12.3784 28.2701 13.0055 28.2701 13.7761V20.0325C28.2701 20.7149 27.9776 21.3658 27.4666 21.8194C27.2819 21.9845 27.0719 22.1196 26.8437 22.2204C26.5407 22.3534 26.2166 22.422 25.8807 22.422ZM24.4711 19.5307V20.0325C24.4711 20.4091 24.6173 20.7625 24.884 21.0285C25.1507 21.2951 25.5041 21.4421 25.8807 21.4421C26.0794 21.4421 26.2705 21.4022 26.4483 21.3238C26.5827 21.2643 26.7066 21.1846 26.8164 21.0873C27.1181 20.8192 27.291 20.435 27.291 20.0332V13.7768C27.291 13.5466 27.1041 13.359 26.8738 13.359H24.8889C24.6656 13.359 24.4795 13.5389 24.4718 13.7607V19.4873C24.4718 19.5006 24.4718 19.516 24.4711 19.5307Z" fill="#E8C547"/>
<path d="M15.6443 20.3117H13.3221C12.667 20.3117 12.1273 19.8001 12.0944 19.1464C12.0937 19.138 12.0938 19.1296 12.0938 19.1219V17.8005C12.0938 17.5296 12.3128 17.3105 12.5837 17.3105H16.3834C16.6543 17.3105 16.8734 17.5296 16.8734 17.8005V19.0841C16.8734 19.7308 16.368 20.269 15.722 20.3096C15.6926 20.311 15.6688 20.3117 15.6443 20.3117ZM13.0736 19.1058C13.0848 19.2332 13.1919 19.3319 13.3221 19.3319H15.6443C15.652 19.3319 15.6597 19.3312 15.6674 19.3312C15.7913 19.3235 15.8935 19.2143 15.8935 19.0841V18.2904H13.0736V19.1058Z" fill="#E8C547"/>
</svg>
