<?xml version="1.0" encoding="UTF-8" standalone="no"?>
<!DOCTYPE svg PUBLIC "-//W3C//DTD SVG 1.1//EN" "http://www.w3.org/Graphics/SVG/1.1/DTD/svg11.dtd">
<svg xmlns="http://www.w3.org/2000/svg" version="1.1" viewBox="0 0 1732 1210">
<g stroke-width="2.00" fill="none" stroke-linecap="butt">
<path stroke="#f2db82" vector-effect="non-scaling-stroke" d="
  M 1556.65 486.92
  L 1559.43 513.32
  A 1.53 1.53 0.0 0 0 1560.54 514.63
  L 1562.05 515.07
  A 0.71 0.71 0.0 0 1 1562.57 515.78
  C 1561.79 555.13 1561.44 594.54 1561.16 633.92
  A 0.67 0.67 0.0 0 0 1561.83 634.60
  L 1587.60 634.81
  A 0.55 0.55 0.0 0 0 1588.15 634.27
  C 1588.18 626.00 1587.79 616.94 1587.78 609.45
  Q 1587.74 562.44 1586.58 515.42
  A 0.63 0.62 87.1 0 1 1587.15 514.78
  L 1589.27 514.59
  A 0.60 0.60 0.0 0 0 1589.82 514.05
  L 1592.60 486.65
  A 0.55 0.55 0.0 0 1 1593.11 486.16
  L 1596.24 485.95
  A 0.82 0.80 11.9 0 0 1596.90 485.53
  C 1598.77 482.11 1609.81 482.76 1610.37 487.81
  A 1.51 1.50 -71.4 0 0 1610.83 488.74
  L 1613.61 491.37
  A 1.36 1.34 -22.6 0 0 1614.55 491.75
  L 1631.44 491.76
  A 2.16 2.16 0.0 0 0 1633.55 490.07
  Q 1637.46 472.50 1633.51 454.94
  A 0.72 0.72 0.0 0 0 1632.81 454.38
  L 1613.18 454.23
  A 1.25 1.22 26.6 0 0 1612.46 454.46
  Q 1610.24 456.12 1609.95 458.65
  A 1.60 1.59 -18.8 0 1 1609.48 459.59
  Q 1602.52 466.24 1596.24 459.09
  A 1.09 1.07 -20.7 0 0 1595.40 458.72
  L 1588.65 458.83
  A 0.94 0.93 69.3 0 1 1587.91 458.49
  C 1585.68 455.88 1568.68 456.72 1563.30 456.98
  A 0.91 0.90 14.2 0 0 1562.56 457.42
  C 1561.40 459.40 1559.75 458.55 1558.11 458.63
  Q 1544.00 459.32 1537.93 461.16
  C 1516.39 467.67 1504.26 482.46 1507.20 505.77
  A 0.75 0.75 0.0 0 0 1507.92 506.43
  L 1511.02 506.52
  A 0.72 0.72 0.0 0 0 1511.75 505.94
  C 1514.93 489.64 1535.05 484.69 1549.11 484.51
  A 1.18 1.15 67.6 0 1 1549.99 484.89
  L 1550.79 485.77
  A 1.38 1.33 -19.4 0 0 1551.75 486.21
  L 1556.01 486.32
  A 0.67 0.67 0.0 0 1 1556.65 486.92"
/>
<path stroke="#aabedf" vector-effect="non-scaling-stroke" d="
  M 268.65 593.16
  C 289.30 559.17 277.40 513.90 242.18 494.84
  C 226.55 486.39 212.38 484.78 193.74 484.76
  Q 145.15 484.71 96.49 484.79
  A 0.49 0.49 0.0 0 0 96.00 485.28
  L 96.00 722.00
  A 0.51 0.51 0.0 0 0 96.51 722.51
  Q 158.89 722.46 221.29 722.53
  Q 230.61 722.54 236.63 721.31
  C 281.32 712.15 309.68 667.29 291.09 623.67
  C 286.21 612.24 278.08 602.21 268.76 593.88
  A 0.58 0.57 -54.2 0 1 268.65 593.16"
/>
<path stroke="#aabedf" vector-effect="non-scaling-stroke" d="
  M 381.94 703.31
  C 410.20 730.42 456.20 736.26 491.75 721.23
  C 527.35 706.17 548.34 671.56 548.47 633.24
  Q 548.57 604.29 548.48 485.26
  A 0.51 0.51 0.0 0 0 547.97 484.75
  L 494.75 484.75
  A 0.52 0.52 0.0 0 0 494.23 485.27
  Q 494.29 554.47 494.21 623.68
  Q 494.20 638.31 493.16 643.61
  C 488.10 669.33 463.55 685.14 437.96 677.22
  C 418.41 671.18 407.71 652.79 407.74 632.75
  Q 407.79 581.03 407.72 529.31
  C 407.70 518.50 407.26 500.20 407.76 485.59
  A 0.82 0.82 0.0 0 0 406.94 484.75
  L 354.28 484.75
  A 1.02 1.01 0.0 0 0 353.26 485.76
  Q 353.21 559.21 353.50 632.19
  C 353.60 659.31 362.13 684.32 381.94 703.31"
/>
<path stroke="#aabedf" vector-effect="non-scaling-stroke" d="
  M 677.75 485.44
  A 0.69 0.69 0.0 0 0 677.06 484.75
  L 624.70 484.75
  A 0.69 0.69 0.0 0 0 624.01 485.44
  L 624.01 721.82
  A 0.69 0.69 0.0 0 0 624.70 722.51
  L 677.06 722.51
  A 0.69 0.69 0.0 0 0 677.75 721.82
  L 677.75 485.44"
/>
<path stroke="#aabedf" vector-effect="non-scaling-stroke" d="
  M 924.50 675.36
  A 0.36 0.36 0.0 0 0 924.14 675.00
  L 810.36 675.00
  A 0.36 0.36 0.0 0 1 810.00 674.64
  L 810.00 485.11
  A 0.36 0.36 0.0 0 0 809.64 484.75
  L 756.11 484.75
  A 0.36 0.36 0.0 0 0 755.75 485.11
  L 755.75 722.14
  A 0.36 0.36 0.0 0 0 756.11 722.50
  L 924.14 722.50
  A 0.36 0.36 0.0 0 0 924.50 722.14
  L 924.50 675.36"
/>
<path stroke="#aabedf" vector-effect="non-scaling-stroke" d="
  M 1199.99 621.76
  C 1210.31 551.54 1158.98 489.29 1088.97 485.08
  Q 1085.34 484.86 1068.97 484.80
  Q 1027.40 484.66 985.74 484.80
  A 0.49 0.49 0.0 0 0 985.25 485.28
  L 985.24 721.95
  A 0.54 0.54 0.0 0 0 985.78 722.49
  Q 1030.77 722.52 1076.20 722.49
  Q 1089.19 722.48 1096.16 721.64
  C 1149.10 715.27 1192.19 674.93 1199.99 621.76"
/>
<path stroke="#aabedf" vector-effect="non-scaling-stroke" d="
  M 1454.49 485.03
  A 0.27 0.27 0.0 0 0 1454.22 484.76
  L 1401.02 484.76
  A 0.27 0.27 0.0 0 0 1400.75 485.03
  L 1400.75 722.23
  A 0.27 0.27 0.0 0 0 1401.02 722.50
  L 1454.22 722.50
  A 0.27 0.27 0.0 0 0 1454.49 722.23
  L 1454.49 485.03"
/>
<path stroke="#f2db82" vector-effect="non-scaling-stroke" d="
  M 1557.23 739.73
  C 1557.17 746.77 1559.44 750.95 1565.00 754.82
  C 1567.98 756.89 1576.15 756.02 1579.82 755.86
  C 1588.54 755.47 1592.08 746.84 1592.03 739.25
  Q 1591.74 690.44 1590.40 640.59
  Q 1590.35 638.73 1588.50 638.73
  L 1560.03 638.79
  A 1.36 1.36 0.0 0 0 1558.67 640.12
  Q 1557.67 690.07 1557.23 739.73"
/>
<path stroke="#aabedf" vector-effect="non-scaling-stroke" d="
  M 196.18 580.81
  C 226.90 580.46 231.29 538.33 201.63 532.74
  Q 199.53 532.34 187.82 532.28
  Q 169.31 532.18 150.74 532.29
  A 0.50 0.49 -90.0 0 0 150.25 532.79
  L 150.25 580.49
  A 0.49 0.49 0.0 0 0 150.73 580.98
  Q 173.47 581.08 196.18 580.81"
/>
<path stroke="#aabedf" vector-effect="non-scaling-stroke" d="
  M 221.70 674.12
  C 245.03 667.99 246.79 635.22 222.65 627.69
  Q 219.00 626.55 211.10 626.53
  Q 180.86 626.46 150.69 626.52
  A 0.44 0.44 0.0 0 0 150.25 626.96
  L 150.25 674.54
  A 0.45 0.45 0.0 0 0 150.70 674.99
  Q 181.19 675.02 211.62 674.98
  Q 218.47 674.97 221.70 674.12"
/>
<path stroke="#aabedf" vector-effect="non-scaling-stroke" d="
  M 1040.08 675.06
  C 1063.44 674.98 1088.81 678.25 1109.76 665.29
  C 1137.71 648.01 1151.20 614.96 1141.67 583.19
  C 1134.74 560.11 1115.33 540.79 1092.06 534.62
  Q 1084.97 532.74 1072.25 532.40
  Q 1056.23 531.98 1040.39 532.35
  A 0.66 0.66 0.0 0 0 1039.75 533.01
  L 1039.75 674.74
  A 0.33 0.32 0.0 0 0 1040.08 675.06"
/>
</g>
<path fill="#f5f3ea" d="
  M 0.00 0.00
  L 1732.00 0.00
  L 1732.00 1210.00
  L 0.00 1210.00
  L 0.00 0.00
  Z
  M 1556.65 486.92
  L 1559.43 513.32
  A 1.53 1.53 0.0 0 0 1560.54 514.63
  L 1562.05 515.07
  A 0.71 0.71 0.0 0 1 1562.57 515.78
  C 1561.79 555.13 1561.44 594.54 1561.16 633.92
  A 0.67 0.67 0.0 0 0 1561.83 634.60
  L 1587.60 634.81
  A 0.55 0.55 0.0 0 0 1588.15 634.27
  C 1588.18 626.00 1587.79 616.94 1587.78 609.45
  Q 1587.74 562.44 1586.58 515.42
  A 0.63 0.62 87.1 0 1 1587.15 514.78
  L 1589.27 514.59
  A 0.60 0.60 0.0 0 0 1589.82 514.05
  L 1592.60 486.65
  A 0.55 0.55 0.0 0 1 1593.11 486.16
  L 1596.24 485.95
  A 0.82 0.80 11.9 0 0 1596.90 485.53
  C 1598.77 482.11 1609.81 482.76 1610.37 487.81
  A 1.51 1.50 -71.4 0 0 1610.83 488.74
  L 1613.61 491.37
  A 1.36 1.34 -22.6 0 0 1614.55 491.75
  L 1631.44 491.76
  A 2.16 2.16 0.0 0 0 1633.55 490.07
  Q 1637.46 472.50 1633.51 454.94
  A 0.72 0.72 0.0 0 0 1632.81 454.38
  L 1613.18 454.23
  A 1.25 1.22 26.6 0 0 1612.46 454.46
  Q 1610.24 456.12 1609.95 458.65
  A 1.60 1.59 -18.8 0 1 1609.48 459.59
  Q 1602.52 466.24 1596.24 459.09
  A 1.09 1.07 -20.7 0 0 1595.40 458.72
  L 1588.65 458.83
  A 0.94 0.93 69.3 0 1 1587.91 458.49
  C 1585.68 455.88 1568.68 456.72 1563.30 456.98
  A 0.91 0.90 14.2 0 0 1562.56 457.42
  C 1561.40 459.40 1559.75 458.55 1558.11 458.63
  Q 1544.00 459.32 1537.93 461.16
  C 1516.39 467.67 1504.26 482.46 1507.20 505.77
  A 0.75 0.75 0.0 0 0 1507.92 506.43
  L 1511.02 506.52
  A 0.72 0.72 0.0 0 0 1511.75 505.94
  C 1514.93 489.64 1535.05 484.69 1549.11 484.51
  A 1.18 1.15 67.6 0 1 1549.99 484.89
  L 1550.79 485.77
  A 1.38 1.33 -19.4 0 0 1551.75 486.21
  L 1556.01 486.32
  A 0.67 0.67 0.0 0 1 1556.65 486.92
  Z
  M 268.65 593.16
  C 289.30 559.17 277.40 513.90 242.18 494.84
  C 226.55 486.39 212.38 484.78 193.74 484.76
  Q 145.15 484.71 96.49 484.79
  A 0.49 0.49 0.0 0 0 96.00 485.28
  L 96.00 722.00
  A 0.51 0.51 0.0 0 0 96.51 722.51
  Q 158.89 722.46 221.29 722.53
  Q 230.61 722.54 236.63 721.31
  C 281.32 712.15 309.68 667.29 291.09 623.67
  C 286.21 612.24 278.08 602.21 268.76 593.88
  A 0.58 0.57 -54.2 0 1 268.65 593.16
  Z
  M 381.94 703.31
  C 410.20 730.42 456.20 736.26 491.75 721.23
  C 527.35 706.17 548.34 671.56 548.47 633.24
  Q 548.57 604.29 548.48 485.26
  A 0.51 0.51 0.0 0 0 547.97 484.75
  L 494.75 484.75
  A 0.52 0.52 0.0 0 0 494.23 485.27
  Q 494.29 554.47 494.21 623.68
  Q 494.20 638.31 493.16 643.61
  C 488.10 669.33 463.55 685.14 437.96 677.22
  C 418.41 671.18 407.71 652.79 407.74 632.75
  Q 407.79 581.03 407.72 529.31
  C 407.70 518.50 407.26 500.20 407.76 485.59
  A 0.82 0.82 0.0 0 0 406.94 484.75
  L 354.28 484.75
  A 1.02 1.01 0.0 0 0 353.26 485.76
  Q 353.21 559.21 353.50 632.19
  C 353.60 659.31 362.13 684.32 381.94 703.31
  Z
  M 677.75 485.44
  A 0.69 0.69 0.0 0 0 677.06 484.75
  L 624.70 484.75
  A 0.69 0.69 0.0 0 0 624.01 485.44
  L 624.01 721.82
  A 0.69 0.69 0.0 0 0 624.70 722.51
  L 677.06 722.51
  A 0.69 0.69 0.0 0 0 677.75 721.82
  L 677.75 485.44
  Z
  M 924.50 675.36
  A 0.36 0.36 0.0 0 0 924.14 675.00
  L 810.36 675.00
  A 0.36 0.36 0.0 0 1 810.00 674.64
  L 810.00 485.11
  A 0.36 0.36 0.0 0 0 809.64 484.75
  L 756.11 484.75
  A 0.36 0.36 0.0 0 0 755.75 485.11
  L 755.75 722.14
  A 0.36 0.36 0.0 0 0 756.11 722.50
  L 924.14 722.50
  A 0.36 0.36 0.0 0 0 924.50 722.14
  L 924.50 675.36
  Z
  M 1199.99 621.76
  C 1210.31 551.54 1158.98 489.29 1088.97 485.08
  Q 1085.34 484.86 1068.97 484.80
  Q 1027.40 484.66 985.74 484.80
  A 0.49 0.49 0.0 0 0 985.25 485.28
  L 985.24 721.95
  A 0.54 0.54 0.0 0 0 985.78 722.49
  Q 1030.77 722.52 1076.20 722.49
  Q 1089.19 722.48 1096.16 721.64
  C 1149.10 715.27 1192.19 674.93 1199.99 621.76
  Z
  M 1454.49 485.03
  A 0.27 0.27 0.0 0 0 1454.22 484.76
  L 1401.02 484.76
  A 0.27 0.27 0.0 0 0 1400.75 485.03
  L 1400.75 722.23
  A 0.27 0.27 0.0 0 0 1401.02 722.50
  L 1454.22 722.50
  A 0.27 0.27 0.0 0 0 1454.49 722.23
  L 1454.49 485.03
  Z
  M 1557.23 739.73
  C 1557.17 746.77 1559.44 750.95 1565.00 754.82
  C 1567.98 756.89 1576.15 756.02 1579.82 755.86
  C 1588.54 755.47 1592.08 746.84 1592.03 739.25
  Q 1591.74 690.44 1590.40 640.59
  Q 1590.35 638.73 1588.50 638.73
  L 1560.03 638.79
  A 1.36 1.36 0.0 0 0 1558.67 640.12
  Q 1557.67 690.07 1557.23 739.73
  Z"
/>
<path fill="#efc319" d="
  M 1556.01 486.32
  L 1551.75 486.21
  A 1.38 1.33 -19.4 0 1 1550.79 485.77
  L 1549.99 484.89
  A 1.18 1.15 67.6 0 0 1549.11 484.51
  C 1535.05 484.69 1514.93 489.64 1511.75 505.94
  A 0.72 0.72 0.0 0 1 1511.02 506.52
  L 1507.92 506.43
  A 0.75 0.75 0.0 0 1 1507.20 505.77
  C 1504.26 482.46 1516.39 467.67 1537.93 461.16
  Q 1544.00 459.32 1558.11 458.63
  C 1559.75 458.55 1561.40 459.40 1562.56 457.42
  A 0.91 0.90 14.2 0 1 1563.30 456.98
  C 1568.68 456.72 1585.68 455.88 1587.91 458.49
  A 0.94 0.93 69.3 0 0 1588.65 458.83
  L 1595.40 458.72
  A 1.09 1.07 -20.7 0 1 1596.24 459.09
  Q 1602.52 466.24 1609.48 459.59
  A 1.60 1.59 -18.8 0 0 1609.95 458.65
  Q 1610.24 456.12 1612.46 454.46
  A 1.25 1.22 26.6 0 1 1613.18 454.23
  L 1632.81 454.38
  A 0.72 0.72 0.0 0 1 1633.51 454.94
  Q 1637.46 472.50 1633.55 490.07
  A 2.16 2.16 0.0 0 1 1631.44 491.76
  L 1614.55 491.75
  A 1.36 1.34 -22.6 0 1 1613.61 491.37
  L 1610.83 488.74
  A 1.51 1.50 -71.4 0 1 1610.37 487.81
  C 1609.81 482.76 1598.77 482.11 1596.90 485.53
  A 0.82 0.80 11.9 0 1 1596.24 485.95
  L 1593.11 486.16
  A 0.55 0.55 0.0 0 0 1592.60 486.65
  L 1589.82 514.05
  A 0.60 0.60 0.0 0 1 1589.27 514.59
  L 1587.15 514.78
  A 0.63 0.62 87.1 0 0 1586.58 515.42
  Q 1587.74 562.44 1587.78 609.45
  C 1587.79 616.94 1588.18 626.00 1588.15 634.27
  A 0.55 0.55 0.0 0 1 1587.60 634.81
  L 1561.83 634.60
  A 0.67 0.67 0.0 0 1 1561.16 633.92
  C 1561.44 594.54 1561.79 555.13 1562.57 515.78
  A 0.71 0.71 0.0 0 0 1562.05 515.07
  L 1560.54 514.63
  A 1.53 1.53 0.0 0 1 1559.43 513.32
  L 1556.65 486.92
  A 0.67 0.67 0.0 0 0 1556.01 486.32
  Z"
/>
<path fill="#5f89d3" d="
  M 268.65 593.16
  A 0.58 0.57 -54.2 0 0 268.76 593.88
  C 278.08 602.21 286.21 612.24 291.09 623.67
  C 309.68 667.29 281.32 712.15 236.63 721.31
  Q 230.61 722.54 221.29 722.53
  Q 158.89 722.46 96.51 722.51
  A 0.51 0.51 0.0 0 1 96.00 722.00
  L 96.00 485.28
  A 0.49 0.49 0.0 0 1 96.49 484.79
  Q 145.15 484.71 193.74 484.76
  C 212.38 484.78 226.55 486.39 242.18 494.84
  C 277.40 513.90 289.30 559.17 268.65 593.16
  Z
  M 196.18 580.81
  C 226.90 580.46 231.29 538.33 201.63 532.74
  Q 199.53 532.34 187.82 532.28
  Q 169.31 532.18 150.74 532.29
  A 0.50 0.49 -90.0 0 0 150.25 532.79
  L 150.25 580.49
  A 0.49 0.49 0.0 0 0 150.73 580.98
  Q 173.47 581.08 196.18 580.81
  Z
  M 221.70 674.12
  C 245.03 667.99 246.79 635.22 222.65 627.69
  Q 219.00 626.55 211.10 626.53
  Q 180.86 626.46 150.69 626.52
  A 0.44 0.44 0.0 0 0 150.25 626.96
  L 150.25 674.54
  A 0.45 0.45 0.0 0 0 150.70 674.99
  Q 181.19 675.02 211.62 674.98
  Q 218.47 674.97 221.70 674.12
  Z"
/>
<path fill="#5f89d3" d="
  M 381.94 703.31
  C 362.13 684.32 353.60 659.31 353.50 632.19
  Q 353.21 559.21 353.26 485.76
  A 1.02 1.01 -0.0 0 1 354.28 484.75
  L 406.94 484.75
  A 0.82 0.82 0.0 0 1 407.76 485.59
  C 407.26 500.20 407.70 518.50 407.72 529.31
  Q 407.79 581.03 407.74 632.75
  C 407.71 652.79 418.41 671.18 437.96 677.22
  C 463.55 685.14 488.10 669.33 493.16 643.61
  Q 494.20 638.31 494.21 623.68
  Q 494.29 554.47 494.23 485.27
  A 0.52 0.52 0.0 0 1 494.75 484.75
  L 547.97 484.75
  A 0.51 0.51 0.0 0 1 548.48 485.26
  Q 548.57 604.29 548.47 633.24
  C 548.34 671.56 527.35 706.17 491.75 721.23
  C 456.20 736.26 410.20 730.42 381.94 703.31
  Z"
/>
<rect fill="#5f89d3" x="624.01" y="484.75" width="53.74" height="237.76" rx="0.69"/>
<path fill="#5f89d3" d="
  M 924.50 675.36
  L 924.50 722.14
  A 0.36 0.36 0.0 0 1 924.14 722.50
  L 756.11 722.50
  A 0.36 0.36 0.0 0 1 755.75 722.14
  L 755.75 485.11
  A 0.36 0.36 0.0 0 1 756.11 484.75
  L 809.64 484.75
  A 0.36 0.36 0.0 0 1 810.00 485.11
  L 810.00 674.64
  A 0.36 0.36 0.0 0 0 810.36 675.00
  L 924.14 675.00
  A 0.36 0.36 0.0 0 1 924.50 675.36
  Z"
/>
<path fill="#5f89d3" d="
  M 1088.97 485.08
  C 1158.98 489.29 1210.31 551.54 1199.99 621.76
  C 1192.19 674.93 1149.10 715.27 1096.16 721.64
  Q 1089.19 722.48 1076.20 722.49
  Q 1030.77 722.52 985.78 722.49
  A 0.54 0.54 0.0 0 1 985.24 721.95
  L 985.25 485.28
  A 0.49 0.49 0.0 0 1 985.74 484.80
  Q 1027.40 484.66 1068.97 484.80
  Q 1085.34 484.86 1088.97 485.08
  Z
  M 1040.08 675.06
  C 1063.44 674.98 1088.81 678.25 1109.76 665.29
  C 1137.71 648.01 1151.20 614.96 1141.67 583.19
  C 1134.74 560.11 1115.33 540.79 1092.06 534.62
  Q 1084.97 532.74 1072.25 532.40
  Q 1056.23 531.98 1040.39 532.35
  A 0.66 0.66 0.0 0 0 1039.75 533.01
  L 1039.75 674.74
  A 0.33 0.32 0.0 0 0 1040.08 675.06
  Z"
/>
<rect fill="#5f89d3" x="1400.75" y="484.76" width="53.74" height="237.74" rx="0.27"/>
<path fill="#f5f3ea" d="
  M 201.63 532.74
  C 231.29 538.33 226.90 580.46 196.18 580.81
  Q 173.47 581.08 150.73 580.98
  A 0.49 0.49 0.0 0 1 150.25 580.49
  L 150.25 532.79
  A 0.50 0.49 -90.0 0 1 150.74 532.29
  Q 169.31 532.18 187.82 532.28
  Q 199.53 532.34 201.63 532.74
  Z"
/>
<path fill="#f5f3ea" d="
  M 1040.08 675.06
  A 0.33 0.32 0.0 0 1 1039.75 674.74
  L 1039.75 533.01
  A 0.66 0.66 0.0 0 1 1040.39 532.35
  Q 1056.23 531.98 1072.25 532.40
  Q 1084.97 532.74 1092.06 534.62
  C 1115.33 540.79 1134.74 560.11 1141.67 583.19
  C 1151.20 614.96 1137.71 648.01 1109.76 665.29
  C 1088.81 678.25 1063.44 674.98 1040.08 675.06
  Z"
/>
<path fill="#f5f3ea" d="
  M 222.65 627.69
  C 246.79 635.22 245.03 667.99 221.70 674.12
  Q 218.47 674.97 211.62 674.98
  Q 181.19 675.02 150.70 674.99
  A 0.45 0.45 0.0 0 1 150.25 674.54
  L 150.25 626.96
  A 0.44 0.44 0.0 0 1 150.69 626.52
  Q 180.86 626.46 211.10 626.53
  Q 219.00 626.55 222.65 627.69
  Z"
/>
<path fill="#efc319" d="
  M 1565.00 754.82
  C 1559.44 750.95 1557.17 746.77 1557.23 739.73
  Q 1557.67 690.07 1558.67 640.12
  A 1.36 1.36 0.0 0 1 1560.03 638.79
  L 1588.50 638.73
  Q 1590.35 638.73 1590.40 640.59
  Q 1591.74 690.44 1592.03 739.25
  C 1592.08 746.84 1588.54 755.47 1579.82 755.86
  C 1576.15 756.02 1567.98 756.89 1565.00 754.82
  Z"
/>
</svg>
