<svg width="75" height="75" viewBox="0 0 75 75" fill="none" xmlns="http://www.w3.org/2000/svg">
<path d="M43.7285 11.7383C43.7083 11.7245 43.6949 11.7052 43.6882 11.6805C43.6862 11.6731 43.682 11.6665 43.6761 11.6621C43.6702 11.6577 43.6632 11.6557 43.6562 11.6564C43.3121 11.6972 42.9658 11.7022 42.6172 11.6715" stroke="#7293C4" stroke-width="2"/>
<path d="M42.6173 11.6721C42.4187 11.5798 42.2568 11.4604 42.1315 11.3142C42.1177 11.2978 42.0833 11.242 42.0283 11.147C42.0239 11.1394 42.0176 11.133 42.0102 11.1287C42.0028 11.1243 41.9945 11.1221 41.9862 11.1223L40.5326 11.1308C40.5135 11.1308 40.496 11.1243 40.4838 11.1128C40.4315 11.0649 40.3941 11.0055 40.3716 10.9344C40.3688 10.9259 40.3643 10.9182 40.3585 10.9117C40.3527 10.9053 40.3457 10.9002 40.338 10.8968C40.2364 10.8531 40.1472 10.8087 40.0339 10.8059C39.3738 10.7865 38.7138 10.7727 38.0541 10.7644C37.4235 10.7571 36.7419 10.8048 36.085 10.8216C35.9705 10.8246 35.8961 10.8589 35.8617 10.9243L35.7669 11.1027C35.7635 11.1092 35.7574 11.1147 35.7492 11.1185C35.7411 11.1223 35.7312 11.1242 35.7209 11.124C34.4003 11.0975 33.0948 11.2215 31.8045 11.496C28.5921 12.1787 26.2982 14.2606 25.8926 17.616" stroke="#A4A88D" stroke-width="2"/>
<path d="M25.8924 17.6152C25.7716 18.2047 25.751 18.7995 25.8307 19.3998C25.8453 19.5126 25.9003 19.5709 25.9575 19.6657" stroke="#7A96BA" stroke-width="2"/>
<path d="M25.957 19.6662C26.0494 19.7608 26.1599 19.7971 26.2886 19.775C26.4698 19.7436 26.5657 19.7453 26.7178 19.7436C26.7402 19.7432 26.7618 19.7345 26.7781 19.7191C26.7944 19.7037 26.8043 19.6828 26.8058 19.6605C26.8805 18.584 27.5952 17.6931 28.4984 17.1113" stroke="#A4A88D" stroke-width="2"/>
<path d="M28.5 17.1111C28.6477 17.1104 28.7805 17.0678 28.8983 16.9832C28.9705 16.9312 29.0373 16.8942 29.0986 16.8721C29.2893 16.8031 29.4481 16.6881 29.6349 16.6292C29.8801 16.5513 30.1118 16.4334 30.353 16.3779C30.7554 16.2859 31.1564 16.1885 31.5558 16.0856C31.8593 16.0071 32.1611 15.9919 32.4708 15.9571C32.5791 15.9448 32.7048 15.8859 32.8467 15.8646C33.1762 15.8148 33.4558 15.8036 33.6854 15.8309" stroke="#7293C4" stroke-width="2"/>
<path d="M33.6836 15.8311L33.7907 16.0476" stroke="#A4A88D" stroke-width="2"/>
<path d="M33.791 16.0479C34.0124 16.2319 34.277 16.2898 34.5848 16.2218C34.7004 16.1963 34.7608 16.2427 34.766 16.3609C34.7761 16.5793 34.8367 16.786 34.9478 16.9808" stroke="#7A96BA" stroke-width="2"/>
<path d="M34.9492 16.9801C35.094 18.3551 35.2617 19.7335 35.347 21.1136C35.3475 21.1219 35.3505 21.1298 35.3556 21.1364C35.3607 21.143 35.3676 21.148 35.3756 21.1506C35.5592 21.2112 35.7494 21.2507 35.9461 21.269C35.9496 21.2693 35.953 21.2704 35.9561 21.2721C35.9591 21.2738 35.9618 21.2762 35.9639 21.2791C35.966 21.2819 35.9675 21.2852 35.9683 21.2887C35.9691 21.2922 35.9692 21.2958 35.9686 21.2993C35.9499 21.4115 35.9386 21.5757 35.9349 21.7919C35.8149 28.7298 35.7902 35.6673 35.6398 42.6047C35.6383 42.6758 35.6346 42.7431 35.6286 42.8067C35.6283 42.8102 35.6287 42.8137 35.6299 42.817C35.631 42.8203 35.6329 42.8234 35.6353 42.826C35.6377 42.8285 35.6407 42.8306 35.644 42.832C35.6473 42.8334 35.6508 42.8342 35.6544 42.8341L40.543 42.8313C40.5492 42.8314 40.5553 42.83 40.5608 42.8274C40.5664 42.8248 40.5713 42.8211 40.5753 42.8163C40.5793 42.8116 40.5821 42.8061 40.5837 42.8002C40.5853 42.7942 40.5856 42.788 40.5845 42.782C40.5617 42.6417 40.5496 42.494 40.5481 42.3388C40.4808 36.2092 40.4348 30.078 40.336 23.9489C40.3332 23.7947 40.2934 23.586 40.3096 23.4008C40.3388 23.0783 40.3108 22.8129 40.308 22.51C40.3076 22.4998 40.303 22.4898 40.2951 22.4819L40.2833 22.4696C40.2783 22.4644 40.2742 22.4574 40.2712 22.4488C40.2682 22.4402 40.2664 22.4303 40.2659 22.4196L40.2255 21.4306C40.221 21.3244 40.2719 21.2595 40.3781 21.2359L40.7613 21.1512C40.775 21.1483 40.7875 21.1406 40.7965 21.1294C40.8056 21.1182 40.8107 21.1042 40.8112 21.0895C40.8217 20.8426 40.8606 20.5964 40.9279 20.3506C40.9701 20.1954 40.9902 19.9153 40.9879 19.5102C40.9868 19.3375 41.0446 18.8404 41.1613 18.0191C41.1654 17.9914 41.1745 17.9652 41.1887 17.9405C41.1986 17.9233 41.2037 17.9056 41.2033 17.8895C41.1966 17.4867 41.2667 17.057 41.2903 16.6985C41.3026 16.5104 41.3195 16.3224 41.3408 16.1347C41.3419 16.1239 41.3464 16.1139 41.3537 16.1063C41.361 16.0987 41.3705 16.0941 41.3806 16.0932L42.0336 16.0314C42.0511 16.03 42.0675 16.0238 42.0809 16.0138C42.0943 16.0039 42.104 15.9905 42.1088 15.9753C42.1514 15.8456 42.2429 15.7734 42.3831 15.7588" stroke="#A4A88D" stroke-width="2"/>
<path d="M42.3828 15.7592C42.415 15.7611 42.4425 15.7749 42.4653 15.8007C42.471 15.8071 42.478 15.8118 42.4857 15.8143C42.4933 15.8168 42.5012 15.8169 42.5085 15.8148C42.9244 15.6906 43.3455 15.6713 43.7719 15.757C43.7903 15.7606 43.8087 15.7576 43.8235 15.7486L43.8975 15.7031" stroke="#7293C4" stroke-width="2"/>
<path d="M43.8968 15.7032C44.1152 15.7589 44.2957 15.8692 44.4382 16.0342C44.5268 16.1374 44.5296 16.2743 44.5532 16.4056C44.5565 16.4236 44.5646 16.4402 44.5768 16.4538C44.7086 16.5957 44.7798 16.7528 44.933 16.8639C45.0895 16.9778 45.1989 17.0922 45.4076 17.099C46.4387 17.1321 47.4833 17.0709 48.5083 17.1237C48.5297 17.1248 48.5506 17.1177 48.5669 17.1038C48.5832 17.0899 48.5936 17.0703 48.5958 17.049C48.6108 16.9148 48.6717 16.8052 48.7787 16.7203C48.7927 16.7091 48.8018 16.6932 48.804 16.676C48.9032 15.9102 49.0435 15.108 49.0727 14.373C49.1187 13.196 49.0794 12.0415 48.85 10.883C48.8107 10.6861 48.7192 10.5251 48.6323 10.345C48.6288 10.3376 48.6232 10.3314 48.6163 10.327C48.6093 10.3227 48.6013 10.3203 48.593 10.3203L44.8741 10.3214C44.8667 10.3214 44.8597 10.3244 44.8545 10.3298C44.8492 10.3351 44.8462 10.3424 44.846 10.35C44.8445 10.5034 44.7899 10.5967 44.6822 10.63C44.5925 10.6577 44.539 10.7248 44.5218 10.8314L44.464 11.1882C44.4614 11.203 44.4515 11.2194 44.4359 11.2342C44.1504 11.5068 44.0376 11.6342 43.7285 11.7385" stroke="#A4A88D" stroke-width="2"/>
<path d="M43.8975 15.7032C43.3833 15.5076 42.8784 15.5263 42.3828 15.7593" stroke="#B7B07E" stroke-width="2"/>
<path d="M34.9478 16.9808L34.8934 16.2234C34.8915 16.1995 34.8825 16.1765 34.8673 16.1573C34.8521 16.1382 34.8316 16.1237 34.8081 16.1157C34.5304 16.0215 34.1001 16.068 33.791 16.0479" stroke="#BFB474" stroke-width="2"/>
<path d="M33.6854 15.8308C33.6242 15.6317 33.3073 15.7775 33.1872 15.7859C33.1177 15.7916 32.6963 15.7938 32.6739 15.814C32.6627 15.8237 32.6503 15.8291 32.6391 15.8291C32.4345 15.8303 32.1858 15.8546 31.893 15.9021C30.7182 16.0923 29.4492 16.4188 28.5 17.111" stroke="#B7B07E" stroke-width="2"/>
<path d="M25.9575 19.6657C25.9029 18.9035 25.8799 18.4481 25.8885 18.2997C25.9019 18.0693 25.9032 17.8411 25.8924 17.6152" stroke="#BFB474" stroke-width="2"/>
<path d="M42.6172 11.6719C42.9826 11.9041 43.353 11.9264 43.7285 11.7386" stroke="#B7B07E" stroke-width="2"/>
<path d="M35.3329 43.6635C35.2229 43.7802 35.1779 43.942 35.1977 44.1488C35.2566 44.7698 35.1741 45.7836 35.1651 46.4764C35.1006 51.4548 35.0327 56.4321 34.9794 61.4104C34.9761 61.7007 34.9819 61.9903 34.9968 62.2794C35.0412 63.1541 35.5242 64.0259 36.3102 64.4483C36.3257 64.4566 36.3442 64.4592 36.3623 64.4556C36.4162 64.4444 36.7214 64.4432 36.6282 64.496C36.6163 64.5028 36.5988 64.5046 36.5794 64.501C36.4343 64.4752 36.3851 64.5123 36.4319 64.6121C36.4357 64.6199 36.4414 64.6266 36.4486 64.6317C36.4557 64.6368 36.464 64.6401 36.4728 64.6413C36.5951 64.6577 36.718 64.666 36.8414 64.666C37.803 64.6682 38.7584 64.6615 39.7194 64.6413C39.7384 64.6409 39.7561 64.635 39.7699 64.6245C39.9169 64.5126 39.8795 64.467 39.6577 64.4876C39.6448 64.4893 39.5713 64.473 39.6296 64.4556C39.7142 64.4302 39.7998 64.4249 39.8866 64.4399C39.9052 64.4432 39.9234 64.4412 39.9388 64.4343C40.3158 64.2643 40.6737 63.8194 40.8762 63.4834C40.9895 63.2954 41.0479 63.0553 41.1371 62.8388C41.3037 62.4332 41.2538 61.8699 41.2498 61.3543C41.2207 57.7583 41.1965 55.271 41.1775 53.8924C41.1264 50.1965 41.0355 46.7642 40.994 44.1241C40.9918 43.9876 40.9878 43.8556 40.9822 43.728C40.9817 43.7152 40.9765 43.7031 40.9676 43.6939C40.9587 43.6847 40.9467 43.6791 40.934 43.6781C40.3096 43.6327 39.651 43.6658 39.04 43.6551" stroke="#A4A88D" stroke-width="2"/>
<path d="M39.0411 43.6547C39.0235 43.6023 39.0477 43.5791 39.1135 43.5851C39.6493 43.6356 40.2249 43.5834 40.7735 43.6176C40.7838 43.6182 40.7937 43.6172 40.8024 43.6148C40.8112 43.6124 40.8187 43.6086 40.8246 43.6036C40.9199 43.5239 40.4824 43.5312 40.4751 43.5312C38.8294 43.5092 37.1838 43.5 35.5382 43.5037C35.4413 43.5037 35.3733 43.5568 35.334 43.6631" stroke="#7A96BA" stroke-width="2"/>
<path d="M39.0411 43.6553C38.1833 43.6839 37.3014 43.6631 36.4667 43.6693C36.0923 43.6719 35.7147 43.67 35.334 43.6637" stroke="#BFB474" stroke-width="2"/>
<path d="M75 37.5C75 42.4246 74.03 47.3009 72.1455 51.8506C70.2609 56.4003 67.4987 60.5343 64.0165 64.0165C60.5343 67.4987 56.4003 70.2609 51.8506 72.1455C47.3009 74.03 42.4246 75 37.5 75C27.5544 75 18.0161 71.0491 10.9835 64.0165C3.95088 56.9839 0 47.4456 0 37.5C0 27.5544 3.95088 18.0161 10.9835 10.9835C18.0161 3.95088 27.5544 0 37.5 0C42.4246 0 47.3009 0.969966 51.8506 2.85452C56.4003 4.73907 60.5343 7.5013 64.0165 10.9835C67.4987 14.4657 70.2609 18.5997 72.1455 23.1494C74.03 27.6991 75 32.5754 75 37.5ZM43.7277 11.7385C43.7076 11.7247 43.6941 11.7054 43.6874 11.6807C43.6855 11.6733 43.6812 11.6668 43.6753 11.6623C43.6694 11.6579 43.6624 11.6559 43.6554 11.6566C43.3113 11.6974 42.965 11.7024 42.6164 11.6718C42.4178 11.5794 42.2559 11.4601 42.1306 11.3138C42.1167 11.2974 42.0823 11.2417 42.0273 11.1467C42.0229 11.139 42.0167 11.1327 42.0093 11.1283C42.0019 11.124 41.9936 11.1218 41.9853 11.122L40.5317 11.1304C40.5126 11.1304 40.4951 11.124 40.4829 11.1124C40.4305 11.0646 40.3931 11.0051 40.3707 10.934C40.3678 10.9256 40.3634 10.9178 40.3576 10.9114C40.3518 10.9049 40.3448 10.8998 40.337 10.8965C40.2355 10.8527 40.1463 10.8084 40.033 10.8056C39.3728 10.7861 38.7129 10.7723 38.0532 10.7641C37.4226 10.7568 36.741 10.8044 36.084 10.8213C35.9696 10.8243 35.8951 10.8585 35.8607 10.9239L35.7659 11.1023C35.7625 11.1089 35.7564 11.1143 35.7483 11.1181C35.7401 11.1219 35.7303 11.1238 35.7199 11.1237C34.3993 11.0971 33.0938 11.2211 31.8035 11.4956C28.5912 12.1784 26.2972 14.2603 25.8916 17.6156C25.7708 18.2051 25.7503 18.7999 25.8299 19.4002C25.8445 19.513 25.8995 19.5713 25.9567 19.6661C26.0491 19.7607 26.1596 19.797 26.2883 19.775C26.4695 19.7435 26.5654 19.7452 26.7174 19.7435C26.7399 19.7432 26.7614 19.7345 26.7777 19.7191C26.7941 19.7037 26.804 19.6828 26.8055 19.6605C26.8801 18.5839 27.5948 17.6931 28.4981 17.1113C28.6458 17.1105 28.7786 17.0679 28.8964 16.9834C28.9686 16.9314 29.0353 16.8944 29.0967 16.8723C29.2874 16.8033 29.4462 16.6883 29.633 16.6294C29.8781 16.5514 30.1098 16.4336 30.3511 16.3781C30.7535 16.2861 31.1544 16.1886 31.5539 16.0858C31.8574 16.0072 32.1592 15.9921 32.4689 15.9573C32.5772 15.945 32.7028 15.8861 32.8448 15.8647C33.1743 15.815 33.4538 15.8038 33.6835 15.8311L33.7906 16.0476C34.012 16.2316 34.2766 16.2896 34.5844 16.2215C34.7 16.1961 34.7604 16.2425 34.7656 16.3607C34.7757 16.5791 34.8363 16.7857 34.9474 16.9806C35.0922 18.3556 35.2599 19.734 35.3452 21.1141C35.3457 21.1224 35.3486 21.1303 35.3537 21.1369C35.3588 21.1435 35.3658 21.1485 35.3738 21.1511C35.5574 21.2117 35.7476 21.2512 35.9443 21.2695C35.9478 21.2698 35.9512 21.2709 35.9543 21.2726C35.9573 21.2743 35.96 21.2767 35.9621 21.2795C35.9642 21.2824 35.9657 21.2857 35.9665 21.2891C35.9673 21.2926 35.9674 21.2963 35.9668 21.2998C35.9481 21.412 35.9368 21.5762 35.9331 21.7923C35.813 28.7303 35.7884 35.6677 35.638 42.6052C35.6365 42.6762 35.6328 42.7436 35.6268 42.8071C35.6265 42.8106 35.6269 42.8141 35.6281 42.8175C35.6292 42.8208 35.6311 42.8238 35.6335 42.8264C35.6359 42.829 35.6389 42.8311 35.6422 42.8325C35.6455 42.8339 35.649 42.8346 35.6526 42.8346L40.5412 42.8318C40.5474 42.8318 40.5534 42.8305 40.559 42.8279C40.5646 42.8253 40.5695 42.8215 40.5735 42.8168C40.5775 42.8121 40.5803 42.8066 40.5819 42.8007C40.5835 42.7947 40.5838 42.7885 40.5827 42.7825C40.5599 42.6422 40.5478 42.4945 40.5463 42.3393C40.479 36.2097 40.4329 30.0784 40.3342 23.9494C40.3314 23.7951 40.2916 23.5864 40.3078 23.4013C40.337 23.0787 40.309 22.8134 40.3062 22.5104C40.3058 22.5003 40.3012 22.4903 40.2933 22.4824L40.2815 22.47C40.2765 22.4649 40.2724 22.4578 40.2694 22.4493C40.2664 22.4407 40.2646 22.4308 40.2641 22.4201L40.2237 21.4311C40.2192 21.3248 40.2701 21.2599 40.3763 21.2364L40.7595 21.1517C40.7732 21.1488 40.7856 21.1411 40.7947 21.1299C40.8038 21.1187 40.8089 21.1047 40.8094 21.09C40.8199 20.8431 40.8588 20.5968 40.9261 20.3511C40.9683 20.1959 40.9883 19.9158 40.9861 19.5107C40.985 19.3379 41.0428 18.8409 41.1595 18.0196C41.1636 17.9919 41.1727 17.9657 41.1869 17.941C41.1968 17.9238 41.2019 17.9061 41.2015 17.89C41.1948 17.4872 41.2649 17.0574 41.2885 16.699C41.3008 16.5108 41.3177 16.3229 41.339 16.1351C41.3401 16.1244 41.3446 16.1144 41.3519 16.1068C41.3592 16.0992 41.3687 16.0946 41.3788 16.0936L42.0318 16.0319C42.0493 16.0304 42.0657 16.0243 42.0791 16.0143C42.0925 16.0043 42.1022 15.9909 42.107 15.9758C42.1496 15.846 42.2411 15.7739 42.3813 15.7593C42.4135 15.7611 42.441 15.775 42.4638 15.8008C42.4695 15.8071 42.4765 15.8118 42.4842 15.8143C42.4919 15.8168 42.4998 15.817 42.507 15.8148C42.9229 15.6906 43.344 15.6714 43.7704 15.757C43.7888 15.7607 43.8072 15.7576 43.822 15.7486L43.896 15.7032C44.1145 15.7589 44.2949 15.8692 44.4374 16.0342C44.5261 16.1374 44.5289 16.2743 44.5524 16.4056C44.5557 16.4235 44.5639 16.4402 44.576 16.4538C44.7078 16.5957 44.7791 16.7528 44.9322 16.8639C45.0887 16.9778 45.1981 17.0922 45.4068 17.099C46.438 17.1321 47.4826 17.0709 48.5075 17.1236C48.5289 17.1248 48.5499 17.1177 48.5662 17.1038C48.5824 17.0899 48.5928 17.0703 48.5951 17.049C48.61 16.9148 48.671 16.8052 48.7779 16.7203C48.792 16.7091 48.801 16.6932 48.8032 16.676C48.9025 15.9102 49.0427 15.1079 49.0719 14.373C49.1179 13.196 49.0786 12.0415 48.8492 10.883C48.8099 10.6861 48.7185 10.5251 48.6315 10.345C48.628 10.3376 48.6225 10.3314 48.6155 10.327C48.6086 10.3226 48.6005 10.3203 48.5922 10.3203L44.8733 10.3214C44.866 10.3214 44.8589 10.3244 44.8537 10.3298C44.8484 10.3351 44.8454 10.3424 44.8453 10.35C44.8438 10.5034 44.7892 10.5967 44.6815 10.63C44.5917 10.6576 44.5382 10.7248 44.521 10.8314L44.4632 11.1882C44.4607 11.203 44.4507 11.2194 44.4352 11.2342C44.1496 11.5068 44.0369 11.6342 43.7277 11.7385ZM35.3328 43.6632C35.2229 43.7799 35.1778 43.9417 35.1976 44.1485C35.2565 44.7695 35.1741 45.7833 35.1651 46.4761C35.1006 51.4545 35.0327 56.4318 34.9794 61.4101C34.976 61.7004 34.9818 61.99 34.9968 62.2791C35.0411 63.1538 35.5241 64.0256 36.3101 64.448C36.3257 64.4563 36.3441 64.4589 36.3623 64.4553C36.4161 64.4441 36.7213 64.4429 36.6282 64.4957C36.6163 64.5025 36.5988 64.5043 36.5794 64.5007C36.4343 64.4749 36.3851 64.512 36.4318 64.6118C36.4357 64.6196 36.4414 64.6263 36.4485 64.6314C36.4557 64.6365 36.464 64.6398 36.4728 64.641C36.5951 64.6574 36.718 64.6657 36.8414 64.6657C37.8029 64.6679 38.7583 64.6612 39.7193 64.641C39.7383 64.6406 39.756 64.6347 39.7698 64.6242C39.9168 64.5123 39.8794 64.4667 39.6576 64.4873C39.6447 64.489 39.5712 64.4727 39.6296 64.4553C39.7141 64.4299 39.7998 64.4246 39.8865 64.4396C39.9052 64.4429 39.9234 64.4409 39.9387 64.434C40.3157 64.264 40.6736 63.8191 40.8761 63.4831C40.9895 63.2951 41.0478 63.055 41.137 62.8385C41.3036 62.4329 41.2537 61.8696 41.2498 61.354C41.2206 57.758 41.1965 55.2707 41.1774 53.8921C41.1264 50.1962 41.0355 46.7639 40.994 44.1238C40.9917 43.9873 40.9878 43.8553 40.9822 43.7277C40.9817 43.715 40.9765 43.7028 40.9676 43.6936C40.9587 43.6844 40.9467 43.6788 40.9339 43.6778C40.3095 43.6324 39.6509 43.6655 39.04 43.6548C39.0224 43.6025 39.0465 43.5793 39.1123 43.5853C39.6481 43.6357 40.2237 43.5836 40.7724 43.6178C40.7827 43.6183 40.7925 43.6173 40.8013 43.6149C40.81 43.6125 40.8176 43.6087 40.8234 43.6038C40.9188 43.5241 40.4812 43.5314 40.4739 43.5314C38.8283 43.5093 37.1827 43.5002 35.537 43.5039C35.4402 43.5039 35.3721 43.557 35.3328 43.6632Z" fill="#5F8AD3"/>
<path d="M43.8968 15.7032C43.3826 15.5076 42.8777 15.5263 42.3821 15.7593C42.2419 15.7739 42.1504 15.8461 42.1078 15.9758C42.103 15.9909 42.0933 16.0043 42.0799 16.0143C42.0665 16.0243 42.05 16.0304 42.0326 16.0319L41.3796 16.0936C41.3695 16.0946 41.3599 16.0992 41.3527 16.1068C41.3454 16.1144 41.3408 16.1244 41.3397 16.1352C41.3184 16.3229 41.3016 16.5108 41.2893 16.699C41.2657 17.0575 41.1956 17.4872 41.2023 17.89C41.2027 17.9061 41.1976 17.9238 41.1877 17.941C41.1735 17.9657 41.1643 17.9919 41.1602 18.0196C41.0435 18.8409 40.9858 19.3379 40.9869 19.5107C40.9891 19.9158 40.9691 20.1959 40.9268 20.3511C40.8595 20.5969 40.8206 20.8431 40.8102 21.09C40.8097 21.1047 40.8045 21.1187 40.7955 21.1299C40.7864 21.1411 40.774 21.1488 40.7602 21.1517L40.3771 21.2364C40.2708 21.26 40.22 21.3249 40.2245 21.4311L40.2649 22.4201C40.2654 22.4308 40.2672 22.4407 40.2702 22.4493C40.2732 22.4578 40.2773 22.4649 40.2823 22.4701L40.294 22.4824C40.3019 22.4903 40.3066 22.5003 40.3069 22.5104C40.3097 22.8134 40.3378 23.0787 40.3086 23.4013C40.2923 23.5865 40.3322 23.7952 40.335 23.9494C40.4337 30.0784 40.4797 36.2097 40.547 42.3393C40.5485 42.4945 40.5607 42.6422 40.5835 42.7825C40.5846 42.7885 40.5843 42.7947 40.5827 42.8007C40.5811 42.8066 40.5782 42.8121 40.5743 42.8168C40.5703 42.8215 40.5654 42.8253 40.5598 42.8279C40.5542 42.8305 40.5481 42.8318 40.542 42.8318L35.6534 42.8346C35.6498 42.8346 35.6462 42.8339 35.643 42.8325C35.6397 42.8311 35.6367 42.829 35.6343 42.8265C35.6319 42.8239 35.63 42.8208 35.6288 42.8175C35.6277 42.8142 35.6273 42.8106 35.6276 42.8071C35.6336 42.7436 35.6373 42.6762 35.6388 42.6052C35.7891 35.6678 35.8138 28.7303 35.9339 21.7924C35.9376 21.5762 35.9488 21.412 35.9675 21.2998C35.9682 21.2963 35.9681 21.2926 35.9673 21.2892C35.9665 21.2857 35.965 21.2824 35.9629 21.2796C35.9608 21.2767 35.9581 21.2743 35.955 21.2726C35.952 21.2709 35.9486 21.2698 35.9451 21.2695C35.7484 21.2512 35.5582 21.2117 35.3746 21.1511C35.3666 21.1485 35.3596 21.1435 35.3545 21.1369C35.3494 21.1303 35.3464 21.1224 35.3459 21.1141C35.2607 19.734 35.0929 18.3556 34.9482 16.9806L34.8938 16.2232C34.8919 16.1992 34.8828 16.1763 34.8677 16.1571C34.8525 16.138 34.8319 16.1235 34.8085 16.1155C34.5308 16.0213 34.1005 16.0678 33.7914 16.0476L33.6842 15.8311C33.6231 15.6319 33.3061 15.7778 33.1861 15.7862C33.1165 15.7918 32.6952 15.7941 32.6727 15.8143C32.6616 15.824 32.6491 15.8294 32.638 15.8294C32.4334 15.8305 32.1847 15.8548 31.8918 15.9023C30.7171 16.0925 29.4481 16.419 28.4988 17.1113C27.5956 17.6931 26.8809 18.584 26.8063 19.6605C26.8047 19.6828 26.7948 19.7037 26.7785 19.7191C26.7622 19.7345 26.7407 19.7432 26.7182 19.7436C26.5662 19.7452 26.4702 19.7436 26.289 19.775C26.1604 19.797 26.0499 19.7608 25.9575 19.6661C25.9029 18.9039 25.8799 18.4486 25.8885 18.3001C25.9019 18.0697 25.9032 17.8416 25.8924 17.6157C26.298 14.2603 28.592 12.1784 31.8043 11.4956C33.0946 11.2211 34.4001 11.0971 35.7207 11.1237C35.731 11.1238 35.7409 11.1219 35.749 11.1181C35.7572 11.1144 35.7633 11.1089 35.7667 11.1024L35.8615 10.924C35.8959 10.8585 35.9703 10.8243 36.0848 10.8213C36.7417 10.8045 37.4234 10.7568 38.0539 10.7641C38.7137 10.7723 39.3736 10.7861 40.0337 10.8056C40.147 10.8084 40.2362 10.8527 40.3378 10.8965C40.3456 10.8998 40.3526 10.9049 40.3584 10.9114C40.3642 10.9179 40.3686 10.9256 40.3714 10.9341C40.3939 11.0051 40.4313 11.0646 40.4837 11.1125C40.4959 11.124 40.5134 11.1304 40.5325 11.1304L41.986 11.122C41.9943 11.1218 42.0026 11.124 42.01 11.1283C42.0175 11.1327 42.0237 11.139 42.0281 11.1467C42.0831 11.2417 42.1175 11.2974 42.1313 11.3139C42.2566 11.4601 42.4186 11.5794 42.6172 11.6718C42.9826 11.904 43.353 11.9263 43.7285 11.7385C44.0376 11.6342 44.1504 11.5068 44.436 11.2342C44.4515 11.2194 44.4615 11.203 44.464 11.1882L44.5218 10.8314C44.539 10.7248 44.5925 10.6577 44.6822 10.63C44.7899 10.5967 44.8446 10.5034 44.846 10.35C44.8462 10.3424 44.8492 10.3351 44.8545 10.3298C44.8597 10.3244 44.8668 10.3214 44.8741 10.3214L48.593 10.3203C48.6013 10.3203 48.6093 10.3227 48.6163 10.327C48.6232 10.3314 48.6288 10.3376 48.6323 10.345C48.7192 10.5251 48.8107 10.6861 48.85 10.883C49.0794 12.0415 49.1187 13.196 49.0727 14.373C49.0435 15.108 48.9033 15.9102 48.804 16.676C48.8018 16.6932 48.7927 16.7091 48.7787 16.7203C48.6717 16.8052 48.6108 16.9148 48.5958 17.049C48.5936 17.0703 48.5832 17.0899 48.5669 17.1038C48.5507 17.1177 48.5297 17.1248 48.5083 17.1237C47.4833 17.0709 46.4387 17.1321 45.4076 17.099C45.1989 17.0922 45.0895 16.9778 44.933 16.8639C44.7798 16.7528 44.7086 16.5957 44.5768 16.4538C44.5647 16.4402 44.5565 16.4236 44.5532 16.4056C44.5296 16.2743 44.5268 16.1374 44.4382 16.0342C44.2957 15.8692 44.1152 15.7589 43.8968 15.7032Z" fill="#E8C547"/>
<path d="M43.7285 11.7383C43.353 11.9261 42.9826 11.9038 42.6172 11.6715C42.9658 11.7022 43.3121 11.6972 43.6562 11.6564C43.6632 11.6557 43.6702 11.6577 43.6761 11.6621C43.682 11.6665 43.6862 11.6731 43.6882 11.6805C43.6949 11.7052 43.7083 11.7245 43.7285 11.7383Z" fill="#859BB4"/>
<path d="M43.8956 15.7032L43.8215 15.7487C43.8068 15.7577 43.7883 15.7607 43.7699 15.7571C43.3435 15.6714 42.9224 15.6907 42.5065 15.8149C42.4993 15.817 42.4914 15.8169 42.4837 15.8144C42.4761 15.8119 42.469 15.8072 42.4633 15.8009C42.4405 15.775 42.413 15.7612 42.3809 15.7593C42.8764 15.5263 43.3813 15.5076 43.8956 15.7032Z" fill="#859BB4"/>
<path d="M33.6834 15.8308C33.4538 15.8035 33.1742 15.8147 32.8447 15.8645C32.7028 15.8858 32.5771 15.9447 32.4689 15.957C32.1592 15.9918 31.8574 16.007 31.5539 16.0855C31.1544 16.1884 30.7535 16.2858 30.3511 16.3778C30.1098 16.4333 29.8781 16.5512 29.633 16.6291C29.4461 16.688 29.2874 16.803 29.0966 16.8721C29.0353 16.8941 28.9685 16.9311 28.8964 16.9831C28.7785 17.0677 28.6458 17.1103 28.498 17.111C29.4473 16.4188 30.7163 16.0923 31.891 15.9021C32.1839 15.8546 32.4326 15.8303 32.6372 15.8291C32.6483 15.8291 32.6608 15.8237 32.6719 15.814C32.6944 15.7938 33.1157 15.7916 33.1853 15.7859C33.3053 15.7775 33.6223 15.6317 33.6834 15.8308Z" fill="#859BB4"/>
<path d="M33.791 16.0479C34.1001 16.068 34.5304 16.0215 34.8081 16.1157C34.8316 16.1237 34.8521 16.1382 34.8673 16.1573C34.8825 16.1765 34.8915 16.1995 34.8934 16.2234L34.9478 16.9808C34.8367 16.786 34.7761 16.5793 34.766 16.3609C34.7608 16.2427 34.7004 16.1963 34.5848 16.2218C34.277 16.2898 34.0124 16.2319 33.791 16.0479Z" fill="#95A2A1"/>
<path d="M25.8924 17.6152C25.9032 17.8411 25.9019 18.0693 25.8885 18.2997C25.8799 18.4481 25.9029 18.9035 25.9575 19.6657C25.9003 19.5709 25.8453 19.5126 25.8307 19.3998C25.751 18.7995 25.7716 18.2047 25.8924 17.6152Z" fill="#95A2A1"/>
<path d="M39.0392 43.6547C38.1814 43.6833 37.2995 43.6625 36.4647 43.6687C36.0903 43.6713 35.7128 43.6694 35.332 43.6631C35.3713 43.5568 35.4394 43.5037 35.5362 43.5037C37.1819 43.5 38.8275 43.5092 40.4731 43.5312C40.4804 43.5312 40.918 43.5239 40.8226 43.6036C40.8168 43.6086 40.8092 43.6124 40.8005 43.6148C40.7917 43.6172 40.7819 43.6182 40.7716 43.6176C40.2229 43.5834 39.6473 43.6356 39.1115 43.5851C39.0457 43.5791 39.0216 43.6023 39.0392 43.6547Z" fill="#95A2A1"/>
<path d="M39.04 43.6551C39.651 43.6658 40.3096 43.6327 40.934 43.6781C40.9467 43.6791 40.9587 43.6847 40.9676 43.6939C40.9765 43.7031 40.9817 43.7152 40.9822 43.728C40.9878 43.8556 40.9918 43.9876 40.994 44.1241C41.0355 46.7642 41.1264 50.1965 41.1775 53.8924C41.1965 55.271 41.2207 57.7583 41.2498 61.3543C41.2538 61.8699 41.3037 62.4332 41.1371 62.8388C41.0479 63.0553 40.9895 63.2954 40.8762 63.4834C40.6737 63.8194 40.3158 64.2643 39.9388 64.4343C39.9234 64.4412 39.9052 64.4432 39.8866 64.4399C39.7998 64.4249 39.7142 64.4302 39.6296 64.4556C39.5713 64.473 39.6448 64.4893 39.6577 64.4876C39.8795 64.467 39.9169 64.5126 39.7699 64.6245C39.7561 64.635 39.7384 64.6409 39.7194 64.6413C38.7584 64.6615 37.803 64.6682 36.8414 64.666C36.718 64.666 36.5951 64.6577 36.4728 64.6413C36.464 64.6401 36.4557 64.6368 36.4486 64.6317C36.4414 64.6266 36.4357 64.6199 36.4319 64.6121C36.3851 64.5123 36.4343 64.4752 36.5794 64.501C36.5988 64.5046 36.6163 64.5028 36.6282 64.496C36.7214 64.4432 36.4162 64.4444 36.3623 64.4556C36.3442 64.4592 36.3257 64.4566 36.3102 64.4483C35.5242 64.0259 35.0412 63.1541 34.9968 62.2794C34.9819 61.9903 34.9761 61.7007 34.9794 61.4104C35.0327 56.4321 35.1006 51.4548 35.1651 46.4764C35.1741 45.7836 35.2566 44.7698 35.1977 44.1488C35.1779 43.942 35.2229 43.7802 35.3329 43.6635C35.7136 43.6699 36.0912 43.6717 36.4656 43.6691C37.3003 43.663 38.1822 43.6837 39.04 43.6551Z" fill="#E8C547"/>
</svg>
